<svg width="51" height="51" viewBox="0 0 51 51" fill="none" xmlns="http://www.w3.org/2000/svg">
<path d="M37.0957 14.0106L20.5918 30.5146L11.601 21.5489L8.06981 25.08L20.5918 37.602L40.6269 17.5669L37.0957 14.0106ZM25.6006 0.0361328C11.7763 0.0361328 0.556641 11.2558 0.556641 25.08C0.556641 38.9043 11.7763 50.124 25.6006 50.124C39.4248 50.124 50.6445 38.9043 50.6445 25.08C50.6445 11.2558 39.4248 0.0361328 25.6006 0.0361328ZM25.6006 45.1152C14.5311 45.1152 5.56542 36.1495 5.56542 25.08C5.56542 14.0106 14.5311 5.04492 25.6006 5.04492C36.67 5.04492 45.6357 14.0106 45.6357 25.08C45.6357 36.1495 36.67 45.1152 25.6006 45.1152Z" fill="black"/>
</svg>
