<svg width="29" height="37" viewBox="0 0 29 37" fill="none" xmlns="http://www.w3.org/2000/svg">
<path d="M2.24632 32.2018C2.24632 34.3827 4.03069 36.1671 6.2116 36.1671H22.0727C24.2537 36.1671 26.038 34.3827 26.038 32.2018V12.3754C26.038 10.1944 24.2537 8.41006 22.0727 8.41006H6.2116C4.03069 8.41006 2.24632 10.1944 2.24632 12.3754V32.2018ZM26.038 2.46214H21.0814L19.6737 1.05446C19.3169 0.697583 18.8014 0.479492 18.2859 0.479492H9.99845C9.48296 0.479492 8.96748 0.697583 8.6106 1.05446L7.20292 2.46214H2.24632C1.15586 2.46214 0.263672 3.35432 0.263672 4.44478C0.263672 5.53523 1.15586 6.42742 2.24632 6.42742H26.038C27.1285 6.42742 28.0207 5.53523 28.0207 4.44478C28.0207 3.35432 27.1285 2.46214 26.038 2.46214Z" fill="black"/>
</svg>
